<svg width="13" height="17" viewBox="0 0 13 17" fill="none" xmlns="http://www.w3.org/2000/svg">
<path fill-rule="evenodd" clip-rule="evenodd" d="M0.64502 14.5878L1.69691 13.5627L2.99729 14.2633L3.25917 15.1649L2.99729 15.9523L2.18575 16.4884L0.912236 15.9523L0.64502 14.5878Z" fill="#59AC64" fill-opacity="0.25"/>
<path d="M2.60631 0.919983L2.60657 13.2021L2.64452 13.2157C3.35217 13.4822 3.84907 14.1394 3.90434 14.903L3.90822 14.9749L3.90947 15.0453C3.90947 16.1248 3.03431 17 1.95474 17C0.875165 17 0 16.1248 0 15.0453C0 14.2397 0.491527 13.5306 1.21527 13.2352L1.2817 13.2095L1.31619 13.1974L1.31653 0.919983H2.60631ZM1.95474 14.3937C1.59488 14.3937 1.30316 14.6854 1.30316 15.0453C1.30316 15.4051 1.59488 15.6969 1.95474 15.6969C2.31459 15.6969 2.60631 15.4051 2.60631 15.0453C2.60631 14.6854 2.31459 14.3937 1.95474 14.3937Z" fill="#59AC64"/>
<path fill-rule="evenodd" clip-rule="evenodd" d="M10.6997 5.0199L1.55008 9.18127L1.55008 0.858521L10.6997 5.0199Z" fill="#59AC64" fill-opacity="0.25"/>
<path d="M1.30225 0L12.9877 5.01987L1.31057 10.0397L1.30225 0ZM2.60675 1.97852L2.61144 8.06165L9.6868 5.02008L2.60675 1.97852Z" fill="#59AC64"/>
</svg>
